<svg width="24" height="24" viewBox="0 0 24 24" fill="none" xmlns="http://www.w3.org/2000/svg">
<path d="M8.22474 2H11.6636C11.6726 2.09584 11.6715 2.192 11.6702 2.28816C11.6705 4.41184 11.67 6.53552 11.6705 8.65936C12.1348 8.65232 12.5993 8.65776 13.0636 8.65616C13.3619 8.65968 13.6607 8.64656 13.9585 8.66656C14.0551 8.6704 14.1513 8.65936 14.2476 8.65616C14.4337 8.656 14.6199 8.65568 14.806 8.65776C14.9102 8.65472 15.0145 8.65424 15.1183 8.66416L15.0956 8.66528C14.9993 8.66464 14.903 8.66464 14.8067 8.6688C14.1407 8.66992 13.4747 8.67152 12.8086 8.6672C12.4283 8.672 12.0478 8.67024 11.6673 8.668C10.5356 8.668 9.40393 8.6688 8.27225 8.66752C7.87833 8.6568 7.48521 8.5824 7.11834 8.43728C6.55194 8.21584 6.04954 7.83504 5.68154 7.35104C5.33594 6.89872 5.10922 6.35632 5.03242 5.79216C4.94938 5.19232 5.0313 4.56976 5.27274 4.01392C5.54698 3.37536 6.02778 2.82832 6.62426 2.472C7.10634 2.18144 7.66298 2.02128 8.22474 2Z" fill="#F24E1E"/>
<path d="M11.6631 2H15.0873C15.6474 2.016 16.2034 2.172 16.686 2.45744C17.1788 2.7464 17.595 3.16432 17.8822 3.65808C18.1094 4.04704 18.2558 4.48288 18.3094 4.93024C18.3311 5.13664 18.3545 5.34496 18.327 5.552C18.2935 6.05952 18.1433 6.55904 17.8878 6.99888C17.5938 7.50816 17.1628 7.93728 16.6521 8.2288C16.1863 8.496 15.6546 8.6472 15.1178 8.66416C15.014 8.65424 14.9097 8.65472 14.8055 8.65776C14.6194 8.65568 14.4332 8.656 14.2471 8.65616C14.1508 8.65936 14.0546 8.6704 13.958 8.66656C13.6602 8.64656 13.3613 8.65968 13.0631 8.65616C12.5988 8.65776 12.1343 8.65232 11.67 8.65936C11.6695 6.53552 11.67 4.41184 11.6696 2.28816C11.6709 2.192 11.672 2.09584 11.6631 2Z" fill="#FF7262"/>
<path d="M6.69073 9.09948C7.17041 8.82636 7.71937 8.67628 8.27137 8.66748C9.40305 8.66876 10.5347 8.66796 11.6664 8.66796C11.6682 9.72493 11.6646 10.7819 11.6683 11.8389C11.6682 11.8441 11.6678 11.8547 11.6677 11.86C11.665 13.0176 11.6678 14.1755 11.6666 15.3333C10.5302 15.3338 9.39393 15.3338 8.25761 15.3331C7.80545 15.3214 7.35521 15.22 6.94417 15.0302C6.42113 14.7905 5.96289 14.4123 5.62705 13.9453C5.29377 13.4838 5.08193 12.9355 5.02049 12.3696C4.95281 11.764 5.05345 11.1401 5.31313 10.5886C5.60369 9.96557 6.09249 9.43788 6.69073 9.09948Z" fill="#A259FF"/>
<path d="M14.8063 8.66875C14.9026 8.66459 14.9989 8.66459 15.0952 8.66523C15.6658 8.68619 16.2322 8.84683 16.7207 9.14459C17.261 9.47019 17.7058 9.95211 17.9863 10.5172C18.2202 10.9804 18.3307 11.499 18.34 12.0159C18.326 12.4372 18.2522 12.8593 18.0909 13.2503C17.7821 14.018 17.1759 14.6599 16.4275 15.0127C15.9205 15.2547 15.3512 15.3622 14.7909 15.3265C14.2434 15.2932 13.705 15.1211 13.24 14.83C12.7376 14.5175 12.3211 14.0691 12.0467 13.5449C11.7739 13.0295 11.6477 12.4419 11.6682 11.8599C11.6683 11.8547 11.6686 11.8441 11.6688 11.8388C11.6798 11.7111 11.6896 11.5831 11.7114 11.4569C11.8062 10.8723 12.063 10.3155 12.4438 9.86203C12.8374 9.39083 13.363 9.03083 13.9459 8.83723C14.2237 8.74251 14.5146 8.69339 14.8063 8.66875Z" fill="#1ABCFE"/>
<path d="M8.25754 15.3331C9.39386 15.3338 10.5302 15.3338 11.6665 15.3333C11.6668 16.4464 11.6668 17.5595 11.6665 18.6727C11.6662 19.1933 11.542 19.7136 11.3047 20.1773C11.0257 20.7264 10.5911 21.1949 10.0649 21.5149C9.57482 21.8159 9.00554 21.981 8.43146 22H8.23866C7.9825 21.9896 7.72698 21.9555 7.47914 21.889C6.88378 21.7325 6.3353 21.4048 5.9129 20.9574C5.36538 20.3832 5.03466 19.608 5.00346 18.815C4.97674 18.2334 5.10522 17.6453 5.37546 17.1293C5.67002 16.5619 6.13194 16.0832 6.6881 15.7677C7.16442 15.495 7.70922 15.3472 8.25754 15.3331Z" fill="#0ACF83"/>
</svg>
