<svg width="40" height="40" viewBox="0 0 40 40" fill="none" xmlns="http://www.w3.org/2000/svg">
<rect width="40" height="40" rx="12" fill="black"/>
<rect x="4" y="4" width="32" height="32" rx="12" fill="white"/>
<path d="M18.6915 0.031262C18.6056 0.0390737 18.3322 0.0664148 18.0861 0.0859441C12.4109 0.597613 7.09501 3.65981 3.72815 8.36639C1.85334 10.9833 0.654235 13.9518 0.201154 17.096C0.0410137 18.1936 0.0214844 18.5177 0.0214844 20.0059C0.0214844 21.494 0.0410137 21.8182 0.201154 22.9157C1.28699 30.4189 6.62631 36.723 13.8678 39.0587C15.1645 39.4766 16.5316 39.7618 18.0861 39.9336C18.6915 40 21.3085 40 21.9139 39.9336C24.5972 39.6368 26.8704 38.9728 29.1124 37.8284C29.4561 37.6526 29.5225 37.6057 29.4756 37.5667C29.4444 37.5432 27.9797 35.5786 26.2221 33.2038L23.0271 28.8878L19.0235 22.9626C16.8206 19.7051 15.0083 17.0413 14.9927 17.0413C14.9771 17.0374 14.9614 19.67 14.9536 22.8845C14.9419 28.5129 14.938 28.7394 14.8677 28.8722C14.7661 29.0636 14.688 29.1417 14.524 29.2276C14.399 29.2901 14.2896 29.3018 13.6998 29.3018H13.0241L12.8445 29.1886C12.7273 29.1144 12.6413 29.0167 12.5828 28.9034L12.5007 28.7277L12.5085 20.8964L12.5203 13.0612L12.6413 12.9089C12.7038 12.8269 12.8366 12.7214 12.9304 12.6707C13.0905 12.5925 13.153 12.5847 13.8287 12.5847C14.6255 12.5847 14.7583 12.616 14.9653 12.8425C15.0239 12.905 17.1917 16.1703 19.7852 20.1035C22.3787 24.0367 25.9252 29.4073 27.6672 32.0438L30.831 36.8363L30.9911 36.7308C32.409 35.809 33.9088 34.4966 35.0962 33.1296C37.6233 30.2275 39.252 26.6888 39.7989 22.9157C39.959 21.8182 39.9785 21.494 39.9785 20.0059C39.9785 18.5177 39.959 18.1936 39.7989 17.096C38.713 9.59283 33.3737 3.28876 26.1322 0.953047C24.855 0.539025 23.4958 0.253897 21.9725 0.0820383C21.5975 0.0429796 19.0157 1.50238e-05 18.6915 0.031262V0.031262ZM26.8704 12.116C27.0579 12.2098 27.2102 12.3894 27.2649 12.5769C27.2962 12.6785 27.304 14.8501 27.2962 19.7442L27.2844 26.7669L26.0463 24.8687L24.8042 22.9704V17.8655C24.8042 14.565 24.8198 12.7097 24.8433 12.6199C24.9058 12.4011 25.0425 12.2293 25.23 12.1277C25.3901 12.0457 25.4487 12.0379 26.0619 12.0379C26.64 12.0379 26.7415 12.0457 26.8704 12.116V12.116Z" fill="black"/>
</svg>
